# xmcd
#
# Track frame offsets: 
#        183
#        11925
#        25123
#        38508
#        50075
#        62790
#        74383
#        86318
#        97213
#        109593
#        121930
#        135208
#        148418
#        159533
#        173248
#        185533
#        198618
#        210448
#        221488
#        233755
#        246190
#        258628
#        271375
#        283755
#
# Disc length: 3947 seconds
#
# Revision: 1
# Processed by: cddbd v1.5.2PL0 Copyright (c) Steve Scherf et al.
# Submitted via: ExactAudioCopy v1.0b3
#
DISCID=680f6918
DTITLE=Williams, Hank - The Wonderful World Of Hank Williams
DYEAR=1991
DGENRE=Country
TTITLE0=A Mansion On The Hill
TTITLE1=Wedding Bells
TTITLE2=You're Gonna Change (Or I'm Gonna Leave)
TTITLE3=My Bucket's Got A Hole In It
TTITLE4=I Just Don't Like This Kind Of Living
TTITLE5=My Son Calls Another Man Daddy
TTITLE6=Why Should We Try Anymore
TTITLE7=Moanin' The Blues
TTITLE8=Cold Cold Heart
TTITLE9=Howlin' At The Moon
TTITLE10=Help Me Understand
TTITLE11=Hey, Good Lookin'
TTITLE12=(I Heard That) Lonesome Whistle
TTITLE13=Ramblin' Man
TTITLE14=I'm Sorry For You My Friend
TTITLE15=Jambalaya (On The Bayou)
TTITLE16=Settin' The Woods On Fire
TTITLE17=I'll Never Get Out Of This World Alive
TTITLE18=Your Cheatin' Heart
TTITLE19=I Won't Be Home No More
TTITLE20=I Saw The Light
TTITLE21=May You Never Be Alone
TTITLE22=Move It On Over
TTITLE23=Lovesick Blues
EXTD=YEAR: 1991
EXTT0=
EXTT1=
EXTT2=
EXTT3=
EXTT4=
EXTT5=
EXTT6=
EXTT7=
EXTT8=
EXTT9=
EXTT10=
EXTT11=
EXTT12=
EXTT13=
EXTT14=
EXTT15=
EXTT16=
EXTT17=
EXTT18=
EXTT19=
EXTT20=
EXTT21=
EXTT22=
EXTT23=
PLAYORDER=
